<?xml version="1.0" encoding="UTF-8"?>
<!DOCTYPE svg PUBLIC "-//W3C//DTD SVG 1.1//EN" "http://www.w3.org/Graphics/SVG/1.1/DTD/svg11.dtd">
<svg xmlns="http://www.w3.org/2000/svg" version="1.1" width="1000px" height="1000px" style="shape-rendering:geometricPrecision; text-rendering:geometricPrecision; image-rendering:optimizeQuality; fill-rule:evenodd; clip-rule:evenodd" xmlns:xlink="http://www.w3.org/1999/xlink">
<g><path style="opacity:0.998" fill="#122617" d="M 225.5,-0.5 C 406.5,-0.5 587.5,-0.5 768.5,-0.5C 864.113,10.2053 933.279,58.5387 976,144.5C 987.813,170.221 994.813,197.221 997,225.5C 997.667,408.5 997.667,591.5 997,774.5C 988.012,854.341 950.512,916.841 884.5,962C 853.519,981 820.185,993.5 784.5,999.5C 592.833,999.5 401.167,999.5 209.5,999.5C 113.26,982.091 46.7604,928.091 10,837.5C 5.84889,824.883 2.34889,812.216 -0.5,799.5C -0.5,600.167 -0.5,400.833 -0.5,201.5C 13.3638,136.541 46.6971,84.374 99.5,45C 126.947,26.2808 156.947,12.9475 189.5,5C 201.572,2.66174 213.572,0.828408 225.5,-0.5 Z"/></g>
<g><path style="opacity:1" fill="#5a2c13" d="M 370.5,158.5 C 367.727,159.657 364.727,160.324 361.5,160.5C 364.171,158.882 367.171,158.215 370.5,158.5 Z"/></g>
<g><path style="opacity:1" fill="#a02333" d="M 498.5,262.5 C 496.037,264.112 494.037,263.612 492.5,261C 487.205,259.392 481.871,259.225 476.5,260.5C 476.192,261.308 475.692,261.975 475,262.5C 468.074,258.145 460.741,257.478 453,260.5C 449.694,258.357 446.027,257.357 442,257.5C 439.509,257.708 437.175,258.375 435,259.5C 433.234,258.767 431.401,258.433 429.5,258.5C 427.372,257.371 425.039,257.204 422.5,258C 421.748,258.671 421.414,259.504 421.5,260.5C 419.901,260.768 418.568,260.434 417.5,259.5C 417.5,258.5 417.5,257.5 417.5,256.5C 414.813,256.336 412.146,256.503 409.5,257C 408.299,257.903 407.465,259.069 407,260.5C 404.959,259.577 402.792,259.244 400.5,259.5C 397.247,254.255 392.58,250.922 386.5,249.5C 384.393,247.273 382.06,245.273 379.5,243.5C 375.253,232.015 370.753,220.682 366,209.5C 360.594,204.549 355.094,199.716 349.5,195C 342.833,194.333 336.167,194.333 329.5,195C 325.165,197.491 322.165,200.991 320.5,205.5C 324.394,205.11 328.06,205.777 331.5,207.5C 331.376,208.107 331.043,208.44 330.5,208.5C 326.05,206.862 321.383,206.029 316.5,206C 315.429,205.148 314.429,204.315 313.5,203.5C 320.344,184.156 333.344,170.99 352.5,164C 401.987,151.455 440.487,166.289 468,208.5C 469.011,209.337 470.178,209.67 471.5,209.5C 473.396,217.031 476.896,223.698 482,229.5C 484.369,236.999 488.036,243.666 493,249.5C 494.567,254.062 496.401,258.395 498.5,262.5 Z"/></g>
<g><path style="opacity:1" fill="#5a2c12" d="M 402.5,158.5 C 406.479,158.742 410.146,159.742 413.5,161.5C 409.521,161.258 405.854,160.258 402.5,158.5 Z"/></g>
<g><path style="opacity:1" fill="#222816" d="M 342.5,165.5 C 327.018,173.797 316.684,186.463 311.5,203.5C 311.167,203.5 310.833,203.5 310.5,203.5C 306.162,203.378 305.828,203.045 309.5,202.5C 309.34,200.801 309.506,199.134 310,197.5C 314.346,188.799 319.679,180.799 326,173.5C 329.192,170.653 332.692,168.153 336.5,166C 338.473,165.505 340.473,165.338 342.5,165.5 Z"/></g>
<g><path style="opacity:1" fill="#2f2914" d="M 448.5,181.5 C 443.064,177.91 437.73,174.077 432.5,170C 426.227,166.857 419.893,164.024 413.5,161.5C 410.146,159.742 406.479,158.742 402.5,158.5C 392.857,157.675 383.191,157.342 373.5,157.5C 383.372,156.811 393.372,156.144 403.5,155.5C 407.852,156.561 412.185,157.728 416.5,159C 419.921,160.039 422.588,162.039 424.5,165C 428.511,166.335 432.511,167.669 436.5,169C 440.47,173.249 444.47,177.416 448.5,181.5 Z"/></g>
<g><path style="opacity:1" fill="#2e2914" d="M 448.5,181.5 C 455.204,182.204 458.871,185.871 459.5,192.5C 455.5,189.167 451.833,185.5 448.5,181.5 Z"/></g>
<g><path style="opacity:1" fill="#5a2d10" d="M 460.5,194.5 C 463.167,195.167 464.833,196.833 465.5,199.5C 463.5,198.167 461.833,196.5 460.5,194.5 Z"/></g>
<g><path style="opacity:1" fill="#87111e" d="M 400.5,259.5 C 398.896,260.287 398.229,261.62 398.5,263.5C 395.824,262.992 393.157,262.825 390.5,263C 388.467,265.257 386.134,267.091 383.5,268.5C 378.957,264.403 374.624,264.903 370.5,270C 368.555,269.872 366.722,270.038 365,270.5C 364.692,269.692 364.192,269.025 363.5,268.5C 360.924,270.954 357.924,272.621 354.5,273.5C 354.327,268.858 354.327,264.192 354.5,259.5C 356.609,257.38 357.276,255.046 356.5,252.5C 358.186,249.262 359.186,245.762 359.5,242C 359.316,240.624 358.649,239.791 357.5,239.5C 357.5,233.833 357.5,228.167 357.5,222.5C 358.487,227.305 358.821,232.305 358.5,237.5C 359.5,237.5 360.5,237.5 361.5,237.5C 361.52,235.857 360.853,234.524 359.5,233.5C 360.642,231.883 361.309,230.05 361.5,228C 360.933,218.697 356.933,210.697 349.5,204C 345.705,203.163 342.039,203.496 338.5,205C 339.448,205.483 340.448,205.649 341.5,205.5C 340.048,206.302 338.382,206.802 336.5,207C 335.619,207.708 334.953,208.542 334.5,209.5C 333.5,209.5 332.5,209.5 331.5,209.5C 330.833,209.5 330.5,209.167 330.5,208.5C 331.043,208.44 331.376,208.107 331.5,207.5C 328.06,205.777 324.394,205.11 320.5,205.5C 322.165,200.991 325.165,197.491 329.5,195C 336.167,194.333 342.833,194.333 349.5,195C 355.094,199.716 360.594,204.549 366,209.5C 370.753,220.682 375.253,232.015 379.5,243.5C 382.06,245.273 384.393,247.273 386.5,249.5C 392.58,250.922 397.247,254.255 400.5,259.5 Z"/></g>
<g><path style="opacity:1" fill="#4a2b11" d="M 465.5,199.5 C 468.544,201.909 470.878,204.909 472.5,208.5C 469.027,206.363 466.694,203.363 465.5,199.5 Z"/></g>
<g><path style="opacity:1" fill="#f9f8f8" d="M 310.5,203.5 C 310.833,203.5 311.167,203.5 311.5,203.5C 312.167,203.5 312.833,203.5 313.5,203.5C 314.429,204.315 315.429,205.148 316.5,206C 321.383,206.029 326.05,206.862 330.5,208.5C 330.5,209.167 330.833,209.5 331.5,209.5C 332.11,210.391 332.443,211.391 332.5,212.5C 328.416,216.76 324.416,221.26 320.5,226C 313.5,226.334 306.5,226.167 299.5,225.5C 295.309,225.284 291.309,225.95 287.5,227.5C 286.548,226.467 286.548,225.3 287.5,224C 287.164,222.97 286.497,222.47 285.5,222.5C 285.167,222.5 284.833,222.5 284.5,222.5C 283.084,219.22 284.084,216.887 287.5,215.5C 287.833,215.5 288.167,215.5 288.5,215.5C 291.431,209.366 296.431,206.866 303.5,208C 305.324,207.34 306.657,206.173 307.5,204.5C 308.791,204.737 309.791,204.404 310.5,203.5 Z"/></g>
<g><path style="opacity:1" fill="#627069" d="M 307.5,204.5 C 306.657,206.173 305.324,207.34 303.5,208C 296.431,206.866 291.431,209.366 288.5,215.5C 288.081,212.675 289.081,210.509 291.5,209C 295.046,207.826 298.713,207.16 302.5,207C 304.078,205.906 305.745,205.072 307.5,204.5 Z"/></g>
<g><path style="opacity:1" fill="#3f2b12" d="M 472.5,209.5 C 476.23,211.281 478.23,214.281 478.5,218.5C 475.759,216.025 473.759,213.025 472.5,209.5 Z"/></g>
<g><path style="opacity:1" fill="#e1e1e1" d="M 332.5,212.5 C 335.461,213.883 338.294,215.55 341,217.5C 341.115,219.107 340.615,220.607 339.5,222C 341.178,223.932 341.678,226.098 341,228.5C 338.527,229.12 336.027,229.786 333.5,230.5C 331.452,233.215 329.118,235.548 326.5,237.5C 322.67,236.889 318.837,236.223 315,235.5C 313.124,235.525 311.624,236.191 310.5,237.5C 304.506,238.397 299.839,236.397 296.5,231.5C 293.914,230.52 291.247,230.187 288.5,230.5C 287.533,229.194 286.199,228.527 284.5,228.5C 284.5,227.167 284.5,225.833 284.5,224.5C 285.338,224.158 285.672,223.492 285.5,222.5C 286.497,222.47 287.164,222.97 287.5,224C 286.548,225.3 286.548,226.467 287.5,227.5C 291.309,225.95 295.309,225.284 299.5,225.5C 306.5,226.167 313.5,226.334 320.5,226C 324.416,221.26 328.416,216.76 332.5,212.5 Z"/></g>
<g><path style="opacity:1" fill="#707c79" d="M 287.5,215.5 C 284.084,216.887 283.084,219.22 284.5,222.5C 280.879,221.264 280.545,219.264 283.5,216.5C 284.736,215.754 286.07,215.421 287.5,215.5 Z"/></g>
<g><path style="opacity:1" fill="#952c17" d="M 373.5,157.5 C 383.191,157.342 392.857,157.675 402.5,158.5C 405.854,160.258 409.521,161.258 413.5,161.5C 419.893,164.024 426.227,166.857 432.5,170C 437.73,174.077 443.064,177.91 448.5,181.5C 451.833,185.5 455.5,189.167 459.5,192.5C 460.338,192.842 460.672,193.508 460.5,194.5C 461.833,196.5 463.5,198.167 465.5,199.5C 466.694,203.363 469.027,206.363 472.5,208.5C 472.5,208.833 472.5,209.167 472.5,209.5C 473.759,213.025 475.759,216.025 478.5,218.5C 479.611,221.856 481.277,224.856 483.5,227.5C 485.393,232.086 487.726,236.419 490.5,240.5C 493.56,244.63 495.56,249.296 496.5,254.5C 497.957,256.628 498.957,258.962 499.5,261.5C 499.5,261.833 499.5,262.167 499.5,262.5C 499.167,262.5 498.833,262.5 498.5,262.5C 496.401,258.395 494.567,254.062 493,249.5C 488.036,243.666 484.369,236.999 482,229.5C 476.896,223.698 473.396,217.031 471.5,209.5C 470.178,209.67 469.011,209.337 468,208.5C 440.487,166.289 401.987,151.455 352.5,164C 333.344,170.99 320.344,184.156 313.5,203.5C 312.833,203.5 312.167,203.5 311.5,203.5C 316.684,186.463 327.018,173.797 342.5,165.5C 348.753,163.541 355.087,161.874 361.5,160.5C 364.727,160.324 367.727,159.657 370.5,158.5C 371.609,158.443 372.609,158.11 373.5,157.5 Z"/></g>
<g><path style="opacity:1" fill="#272714" d="M 351.5,210.5 C 353.316,212.118 354.649,214.118 355.5,216.5C 356.756,226.161 356.756,235.828 355.5,245.5C 354.527,247.948 354.194,250.615 354.5,253.5C 353.85,253.804 353.183,254.137 352.5,254.5C 351.832,256.969 351.165,259.302 350.5,261.5C 351.311,253.988 352.311,246.488 353.5,239C 353.164,235.312 352.831,231.812 352.5,228.5C 355.321,224.764 354.988,221.264 351.5,218C 352.649,215.541 352.649,213.041 351.5,210.5 Z"/></g>
<g><path style="opacity:1" fill="#5f290e" d="M 355.5,216.5 C 357.28,217.99 357.946,219.99 357.5,222.5C 357.5,228.167 357.5,233.833 357.5,239.5C 356.833,241.5 356.167,243.5 355.5,245.5C 356.756,235.828 356.756,226.161 355.5,216.5 Z"/></g>
<g><path style="opacity:1" fill="#ad230a" d="M 357.5,222.5 C 357.946,219.99 357.28,217.99 355.5,216.5C 354.649,214.118 353.316,212.118 351.5,210.5C 351.489,208.983 350.823,207.816 349.5,207C 346.937,205.921 344.271,205.421 341.5,205.5C 340.448,205.649 339.448,205.483 338.5,205C 342.039,203.496 345.705,203.163 349.5,204C 356.933,210.697 360.933,218.697 361.5,228C 361.309,230.05 360.642,231.883 359.5,233.5C 360.853,234.524 361.52,235.857 361.5,237.5C 360.5,237.5 359.5,237.5 358.5,237.5C 358.821,232.305 358.487,227.305 357.5,222.5 Z"/></g>
<g><path style="opacity:1" fill="#888d8e" d="M 288.5,230.5 C 291.247,230.187 293.914,230.52 296.5,231.5C 299.839,236.397 304.506,238.397 310.5,237.5C 304.417,239.88 299.417,238.38 295.5,233C 293.073,232.098 290.74,231.264 288.5,230.5 Z"/></g>
<g><path style="opacity:1" fill="#392a13" d="M 483.5,227.5 C 488.681,230.188 491.014,234.522 490.5,240.5C 487.726,236.419 485.393,232.086 483.5,227.5 Z"/></g>
<g><path style="opacity:1" fill="#636f6a" d="M 331.5,209.5 C 332.5,209.5 333.5,209.5 334.5,209.5C 337.519,211.356 340.185,213.69 342.5,216.5C 342.44,219.788 342.773,223.122 343.5,226.5C 343.167,227.5 342.833,228.5 342.5,229.5C 337.984,230.827 334.318,233.327 331.5,237C 329.866,237.494 328.199,237.66 326.5,237.5C 329.118,235.548 331.452,233.215 333.5,230.5C 336.027,229.786 338.527,229.12 341,228.5C 341.678,226.098 341.178,223.932 339.5,222C 340.615,220.607 341.115,219.107 341,217.5C 338.294,215.55 335.461,213.883 332.5,212.5C 332.443,211.391 332.11,210.391 331.5,209.5 Z"/></g>
<g><path style="opacity:1" fill="#415147" d="M 284.5,224.5 C 284.5,225.833 284.5,227.167 284.5,228.5C 286.199,228.527 287.533,229.194 288.5,230.5C 290.74,231.264 293.073,232.098 295.5,233C 299.417,238.38 304.417,239.88 310.5,237.5C 311.624,236.191 313.124,235.525 315,235.5C 318.837,236.223 322.67,236.889 326.5,237.5C 325.223,238.898 323.557,239.564 321.5,239.5C 319.341,239.12 317.174,238.787 315,238.5C 306.096,242.567 298.596,240.9 292.5,233.5C 289.257,232.985 286.424,231.652 284,229.5C 283.22,227.613 283.387,225.946 284.5,224.5 Z"/></g>
<g><path style="opacity:1" fill="#8c2707" d="M 357.5,239.5 C 357.407,244.495 356.407,249.161 354.5,253.5C 354.194,250.615 354.527,247.948 355.5,245.5C 356.167,243.5 356.833,241.5 357.5,239.5 Z"/></g>
<g><path style="opacity:1" fill="#be2806" d="M 357.5,239.5 C 358.649,239.791 359.316,240.624 359.5,242C 359.186,245.762 358.186,249.262 356.5,252.5C 357.276,255.046 356.609,257.38 354.5,259.5C 354.327,264.192 354.327,268.858 354.5,273.5C 354.5,274.5 354.5,275.5 354.5,276.5C 353.318,279.009 351.318,280.343 348.5,280.5C 348.5,279.167 348.5,277.833 348.5,276.5C 349.167,272.833 349.833,269.167 350.5,265.5C 351.117,265.389 351.617,265.056 352,264.5C 352.9,260.829 353.734,257.163 354.5,253.5C 356.407,249.161 357.407,244.495 357.5,239.5 Z"/></g>
<g><path style="opacity:1" fill="#ce5c4c" d="M 417.5,259.5 C 415.218,258.61 412.885,258.444 410.5,259C 409.748,259.671 409.414,260.504 409.5,261.5C 409.265,262.097 408.765,262.43 408,262.5C 404.316,259.546 401.15,259.879 398.5,263.5C 398.229,261.62 398.896,260.287 400.5,259.5C 402.792,259.244 404.959,259.577 407,260.5C 407.465,259.069 408.299,257.903 409.5,257C 412.146,256.503 414.813,256.336 417.5,256.5C 417.5,257.5 417.5,258.5 417.5,259.5 Z"/></g>
<g><path style="opacity:1" fill="#66371e" d="M 496.5,254.5 C 498.89,255.891 500.557,257.891 501.5,260.5C 501.5,260.833 501.5,261.167 501.5,261.5C 501.167,261.5 500.833,261.5 500.5,261.5C 500.167,261.5 499.833,261.5 499.5,261.5C 498.957,258.962 497.957,256.628 496.5,254.5 Z"/></g>
<g><path style="opacity:1" fill="#e49781" d="M 429.5,258.5 C 426.487,258.107 423.82,258.774 421.5,260.5C 421.414,259.504 421.748,258.671 422.5,258C 425.039,257.204 427.372,257.371 429.5,258.5 Z"/></g>
<g><path style="opacity:1" fill="#fdfdfd" d="M 450.5,261.5 C 452.799,263.769 455.466,264.102 458.5,262.5C 463.65,260.614 467.983,261.781 471.5,266C 472.833,266.167 474.167,266.333 475.5,266.5C 479.172,265.155 482.839,263.822 486.5,262.5C 488.216,262.629 489.883,262.962 491.5,263.5C 493.607,268.427 496.607,269.427 500.5,266.5C 502.888,263.924 505.888,262.924 509.5,263.5C 513.482,265.817 516.815,268.817 519.5,272.5C 519.536,275.821 518.869,278.988 517.5,282C 518.779,286.293 521.279,289.793 525,292.5C 525.334,294.847 525.167,297.181 524.5,299.5C 523.5,299.5 522.5,299.5 521.5,299.5C 521.517,301.565 521.85,303.565 522.5,305.5C 521.551,306.152 520.385,306.486 519,306.5C 508.526,305.635 499.36,301.802 491.5,295C 473.249,292.006 454.916,291.173 436.5,292.5C 421.961,295.474 407.294,297.64 392.5,299C 388.941,300.228 385.608,301.894 382.5,304C 378.186,307.824 373.519,311.157 368.5,314C 356.235,315.812 344.568,319.312 333.5,324.5C 333.274,319.438 333.608,314.438 334.5,309.5C 333.213,304.58 332.213,299.58 331.5,294.5C 331.992,292.181 332.992,290.181 334.5,288.5C 337.931,282.912 342.598,281.579 348.5,284.5C 351.225,284.324 352.892,282.99 353.5,280.5C 355.297,278.551 357.297,276.884 359.5,275.5C 362.916,275.93 366.25,276.43 369.5,277C 371.658,274.319 373.992,271.652 376.5,269C 378.134,268.506 379.801,268.34 381.5,268.5C 381.866,269.695 382.699,270.361 384,270.5C 386.487,269.346 388.321,267.513 389.5,265C 391.899,264.289 394.232,264.456 396.5,265.5C 397.522,265.145 398.189,264.478 398.5,263.5C 401.15,259.879 404.316,259.546 408,262.5C 408.765,262.43 409.265,262.097 409.5,261.5C 413.12,260.876 416.786,261.21 420.5,262.5C 422.208,262.297 423.541,261.464 424.5,260C 426.134,259.506 427.801,259.34 429.5,259.5C 431.228,260.379 433.061,261.046 435,261.5C 437.477,260.031 440.143,259.031 443,258.5C 445.949,258.563 448.449,259.563 450.5,261.5 Z"/></g>
<g><path style="opacity:1" fill="#da654d" d="M 498.5,262.5 C 498.833,262.5 499.167,262.5 499.5,262.5C 499.5,263.5 499.5,264.5 499.5,265.5C 496.549,265.713 493.882,265.046 491.5,263.5C 489.241,261.245 486.408,260.245 483,260.5C 479.406,259.717 477.573,261.05 477.5,264.5C 475.833,264.5 474.167,264.5 472.5,264.5C 470.637,262.295 468.303,260.961 465.5,260.5C 463.372,259.371 461.039,259.204 458.5,260C 456.275,262.722 453.608,263.222 450.5,261.5C 448.449,259.563 445.949,258.563 443,258.5C 440.143,259.031 437.477,260.031 435,261.5C 433.061,261.046 431.228,260.379 429.5,259.5C 429.5,259.167 429.5,258.833 429.5,258.5C 431.401,258.433 433.234,258.767 435,259.5C 437.175,258.375 439.509,257.708 442,257.5C 446.027,257.357 449.694,258.357 453,260.5C 460.741,257.478 468.074,258.145 475,262.5C 475.692,261.975 476.192,261.308 476.5,260.5C 481.871,259.225 487.205,259.392 492.5,261C 494.037,263.612 496.037,264.112 498.5,262.5 Z"/></g>
<g><path style="opacity:1" fill="#e39f8a" d="M 465.5,260.5 C 463.473,260.338 461.473,260.505 459.5,261C 458.944,261.383 458.611,261.883 458.5,262.5C 455.466,264.102 452.799,263.769 450.5,261.5C 453.608,263.222 456.275,262.722 458.5,260C 461.039,259.204 463.372,259.371 465.5,260.5 Z"/></g>
<g><path style="opacity:1" fill="#e4947b" d="M 491.5,263.5 C 489.883,262.962 488.216,262.629 486.5,262.5C 483.259,260.861 480.592,261.695 478.5,265C 476.288,265.789 474.288,265.622 472.5,264.5C 474.167,264.5 475.833,264.5 477.5,264.5C 477.573,261.05 479.406,259.717 483,260.5C 486.408,260.245 489.241,261.245 491.5,263.5 Z"/></g>
<g><path style="opacity:1" fill="#e6c4ba" d="M 417.5,259.5 C 418.568,260.434 419.901,260.768 421.5,260.5C 423.82,258.774 426.487,258.107 429.5,258.5C 429.5,258.833 429.5,259.167 429.5,259.5C 427.801,259.34 426.134,259.506 424.5,260C 423.541,261.464 422.208,262.297 420.5,262.5C 416.786,261.21 413.12,260.876 409.5,261.5C 409.414,260.504 409.748,259.671 410.5,259C 412.885,258.444 415.218,258.61 417.5,259.5 Z"/></g>
<g><path style="opacity:1" fill="#e8cac1" d="M 465.5,260.5 C 468.303,260.961 470.637,262.295 472.5,264.5C 474.288,265.622 476.288,265.789 478.5,265C 480.592,261.695 483.259,260.861 486.5,262.5C 482.839,263.822 479.172,265.155 475.5,266.5C 474.167,266.333 472.833,266.167 471.5,266C 467.983,261.781 463.65,260.614 458.5,262.5C 458.611,261.883 458.944,261.383 459.5,261C 461.473,260.505 463.473,260.338 465.5,260.5 Z"/></g>
<g><path style="opacity:1" fill="#7d280a" d="M 354.5,253.5 C 353.734,257.163 352.9,260.829 352,264.5C 351.617,265.056 351.117,265.389 350.5,265.5C 350.5,264.167 350.5,262.833 350.5,261.5C 351.165,259.302 351.832,256.969 352.5,254.5C 353.183,254.137 353.85,253.804 354.5,253.5 Z"/></g>
<g><path style="opacity:1" fill="#e19f8f" d="M 398.5,263.5 C 398.189,264.478 397.522,265.145 396.5,265.5C 394.232,264.456 391.899,264.289 389.5,265C 388.321,267.513 386.487,269.346 384,270.5C 382.699,270.361 381.866,269.695 381.5,268.5C 382.167,268.5 382.833,268.5 383.5,268.5C 386.134,267.091 388.467,265.257 390.5,263C 393.157,262.825 395.824,262.992 398.5,263.5 Z"/></g>
<g><path style="opacity:1" fill="#b59f98" d="M 500.5,261.5 C 500.833,261.5 501.167,261.5 501.5,261.5C 504.28,262.078 506.947,262.745 509.5,263.5C 505.888,262.924 502.888,263.924 500.5,266.5C 500.5,264.833 500.5,263.167 500.5,261.5 Z"/></g>
<g><path style="opacity:1" fill="#df9d89" d="M 499.5,261.5 C 499.833,261.5 500.167,261.5 500.5,261.5C 500.5,263.167 500.5,264.833 500.5,266.5C 496.607,269.427 493.607,268.427 491.5,263.5C 493.882,265.046 496.549,265.713 499.5,265.5C 499.5,264.5 499.5,263.5 499.5,262.5C 499.5,262.167 499.5,261.833 499.5,261.5 Z"/></g>
<g><path style="opacity:1" fill="#cf4e32" d="M 383.5,268.5 C 382.833,268.5 382.167,268.5 381.5,268.5C 379.712,267.378 377.712,267.211 375.5,268C 373.598,269.73 371.931,271.563 370.5,273.5C 368.334,273.421 366.334,272.754 364.5,271.5C 360.702,272.313 357.369,273.979 354.5,276.5C 354.5,275.5 354.5,274.5 354.5,273.5C 357.924,272.621 360.924,270.954 363.5,268.5C 364.192,269.025 364.692,269.692 365,270.5C 366.722,270.038 368.555,269.872 370.5,270C 374.624,264.903 378.957,264.403 383.5,268.5 Z"/></g>
<g><path style="opacity:1" fill="#7c2b0c" d="M 350.5,265.5 C 349.833,269.167 349.167,272.833 348.5,276.5C 348.167,276.5 347.833,276.5 347.5,276.5C 347.457,273.09 347.957,269.757 349,266.5C 349.383,265.944 349.883,265.611 350.5,265.5 Z"/></g>
<g><path style="opacity:1" fill="#e6c9c3" d="M 381.5,268.5 C 379.801,268.34 378.134,268.506 376.5,269C 373.992,271.652 371.658,274.319 369.5,277C 366.25,276.43 362.916,275.93 359.5,275.5C 360.134,274.053 361.301,273.387 363,273.5C 364.865,273.706 366.532,274.372 368,275.5C 369.301,275.361 370.134,274.695 370.5,273.5C 371.931,271.563 373.598,269.73 375.5,268C 377.712,267.211 379.712,267.378 381.5,268.5 Z"/></g>
<g><path style="opacity:1" fill="#636c6a" d="M 501.5,261.5 C 501.5,261.167 501.5,260.833 501.5,260.5C 517.637,260.989 524.304,269.323 521.5,285.5C 520.053,284.866 519.387,283.699 519.5,282C 520.641,278.671 520.641,275.505 519.5,272.5C 516.815,268.817 513.482,265.817 509.5,263.5C 506.947,262.745 504.28,262.078 501.5,261.5 Z"/></g>
<g><path style="opacity:1" fill="#cf7c67" d="M 370.5,273.5 C 370.134,274.695 369.301,275.361 368,275.5C 366.532,274.372 364.865,273.706 363,273.5C 361.301,273.387 360.134,274.053 359.5,275.5C 357.297,276.884 355.297,278.551 353.5,280.5C 351.086,283.033 348.753,283.033 346.5,280.5C 346.5,279.167 346.5,277.833 346.5,276.5C 346.833,276.5 347.167,276.5 347.5,276.5C 347.833,276.5 348.167,276.5 348.5,276.5C 348.5,277.833 348.5,279.167 348.5,280.5C 351.318,280.343 353.318,279.009 354.5,276.5C 357.369,273.979 360.702,272.313 364.5,271.5C 366.334,272.754 368.334,273.421 370.5,273.5 Z"/></g>
<g><path style="opacity:1" fill="#b5acab" d="M 346.5,280.5 C 348.753,283.033 351.086,283.033 353.5,280.5C 352.892,282.99 351.225,284.324 348.5,284.5C 342.598,281.579 337.931,282.912 334.5,288.5C 336.267,282.629 340.101,280.629 346,282.5C 346.464,281.906 346.631,281.239 346.5,280.5 Z"/></g>
<g><path style="opacity:1" fill="#606966" d="M 346.5,276.5 C 346.5,277.833 346.5,279.167 346.5,280.5C 346.631,281.239 346.464,281.906 346,282.5C 340.101,280.629 336.267,282.629 334.5,288.5C 332.992,290.181 331.992,292.181 331.5,294.5C 330.102,295.777 329.436,297.443 329.5,299.5C 330.271,302.645 330.937,305.812 331.5,309C 331.693,311.008 331.026,312.508 329.5,313.5C 328.126,309.372 327.459,305.039 327.5,300.5C 329.056,292.076 333.056,284.91 339.5,279C 341.9,278.256 344.233,277.423 346.5,276.5 Z"/></g>
<g><path style="opacity:1" fill="#e4e5e5" d="M 522.5,305.5 C 523.391,306.11 524.391,306.443 525.5,306.5C 527.461,308.292 528.795,310.458 529.5,313C 527.512,315.478 526.512,318.312 526.5,321.5C 523.657,320.229 520.657,319.396 517.5,319C 513.814,315.269 509.481,314.102 504.5,315.5C 502.423,315.308 500.423,314.808 498.5,314C 496.486,311.655 494.153,309.655 491.5,308C 488.189,308.215 484.856,308.215 481.5,308C 477.056,306.347 473.389,303.847 470.5,300.5C 468.811,300.726 467.145,301.059 465.5,301.5C 461.797,300.56 458.297,299.227 455,297.5C 449.052,300.155 443.218,299.821 437.5,296.5C 434.616,298.798 431.283,300.131 427.5,300.5C 424.532,299.838 421.532,299.505 418.5,299.5C 418.863,301.911 417.863,303.411 415.5,304C 409.833,304.333 404.167,304.667 398.5,305C 397.193,308.974 394.526,311.641 390.5,313C 386.833,313.333 383.167,313.667 379.5,314C 377.244,318.592 373.911,322.259 369.5,325C 366.289,326.153 362.956,326.82 359.5,327C 357.257,331.248 354.257,334.914 350.5,338C 346.766,339.825 342.766,340.825 338.5,341C 333.177,347.658 327.844,354.325 322.5,361C 320.866,361.494 319.199,361.66 317.5,361.5C 317.799,359.396 317.466,357.396 316.5,355.5C 315.583,356.127 314.583,356.461 313.5,356.5C 318.079,351.437 321.746,345.77 324.5,339.5C 325.728,338.694 326.728,337.694 327.5,336.5C 328.139,335.903 328.472,335.07 328.5,334C 326.906,330.326 326.239,326.492 326.5,322.5C 328.075,320.453 329.075,318.119 329.5,315.5C 331.435,313.62 333.101,311.62 334.5,309.5C 333.608,314.438 333.274,319.438 333.5,324.5C 344.568,319.312 356.235,315.812 368.5,314C 373.519,311.157 378.186,307.824 382.5,304C 385.608,301.894 388.941,300.228 392.5,299C 407.294,297.64 421.961,295.474 436.5,292.5C 454.916,291.173 473.249,292.006 491.5,295C 499.36,301.802 508.526,305.635 519,306.5C 520.385,306.486 521.551,306.152 522.5,305.5 Z"/></g>
<g><path style="opacity:1" fill="#fcfcfc" d="M 526.5,321.5 C 526.5,322.167 526.833,322.5 527.5,322.5C 529.807,328.392 531.807,334.392 533.5,340.5C 533.479,349.182 533.146,357.848 532.5,366.5C 532.5,367.167 532.5,367.833 532.5,368.5C 531.419,371.627 530.753,374.96 530.5,378.5C 526.686,391.771 520.852,404.104 513,415.5C 509.59,419.416 505.757,422.749 501.5,425.5C 498.868,426.472 496.535,427.805 494.5,429.5C 493.833,429.5 493.167,429.5 492.5,429.5C 484.688,429.975 477.021,429.308 469.5,427.5C 467.496,426.327 465.996,424.66 465,422.5C 464.087,416.958 464.754,411.625 467,406.5C 473.51,396.805 480.01,387.138 486.5,377.5C 488.834,375.824 489.834,373.491 489.5,370.5C 490.467,362.586 490.801,354.586 490.5,346.5C 490.741,344.102 490.074,342.102 488.5,340.5C 487.117,334.729 484.45,329.729 480.5,325.5C 479.167,322.167 476.833,319.833 473.5,318.5C 469.422,316.788 465.422,315.121 461.5,313.5C 461.082,312.778 460.416,312.278 459.5,312C 456.854,311.503 454.187,311.336 451.5,311.5C 442.676,310.343 433.676,310.176 424.5,311C 423.944,311.383 423.611,311.883 423.5,312.5C 415.567,314.088 407.901,316.588 400.5,320C 372.844,338.821 351.844,363.321 337.5,393.5C 336.094,393.973 335.427,394.973 335.5,396.5C 331.989,402.861 328.989,409.528 326.5,416.5C 324.229,418.612 322.896,421.279 322.5,424.5C 320.835,429.162 319.168,433.828 317.5,438.5C 315.528,441.084 314.528,444.084 314.5,447.5C 312.704,453.68 311.037,460.013 309.5,466.5C 308.883,466.611 308.383,466.944 308,467.5C 307.229,472.855 306.395,478.188 305.5,483.5C 302.229,505.812 301.895,528.145 304.5,550.5C 304.41,553.152 305.076,555.485 306.5,557.5C 306.5,557.833 306.5,558.167 306.5,558.5C 306.294,561.495 306.96,564.162 308.5,566.5C 315.332,592.516 328.665,614.683 348.5,633C 354.229,637.863 360.562,641.696 367.5,644.5C 370.632,647.11 374.299,648.777 378.5,649.5C 378.833,649.5 379.167,649.5 379.5,649.5C 383.681,650.66 388.015,651.66 392.5,652.5C 409.722,654.505 426.722,653.505 443.5,649.5C 446.947,648.917 449.947,647.584 452.5,645.5C 467.768,638.575 481.435,629.241 493.5,617.5C 497.5,615.5 500.5,612.5 502.5,608.5C 515.196,595.428 526.196,581.095 535.5,565.5C 537.044,560.394 538.044,555.061 538.5,549.5C 539.301,544.438 540.301,539.438 541.5,534.5C 543.411,530.767 544.744,526.767 545.5,522.5C 546.992,518.013 548.658,513.68 550.5,509.5C 552.245,507.967 553.245,505.967 553.5,503.5C 555.837,499.492 558.17,495.492 560.5,491.5C 562.587,490.415 563.92,488.749 564.5,486.5C 576.044,469.086 591.377,456.419 610.5,448.5C 615.165,447.943 619.498,446.61 623.5,444.5C 643.282,438.696 662.948,439.196 682.5,446C 685.212,449.102 688.379,451.602 692,453.5C 693.723,455.717 695.223,458.05 696.5,460.5C 697.468,463.1 698.801,465.434 700.5,467.5C 703.203,478.867 702.87,490.2 699.5,501.5C 697.796,504.939 696.462,508.605 695.5,512.5C 694.833,513.833 694.167,515.167 693.5,516.5C 691.413,517.585 690.08,519.251 689.5,521.5C 687.343,523.412 685.009,525.079 682.5,526.5C 679.982,527.264 677.649,528.264 675.5,529.5C 670.797,529.563 666.13,529.229 661.5,528.5C 660.164,526.99 658.997,525.323 658,523.5C 657.324,518.129 657.491,512.796 658.5,507.5C 659.222,507.082 659.722,506.416 660,505.5C 660.912,500.536 661.412,495.536 661.5,490.5C 661.5,490.167 661.5,489.833 661.5,489.5C 664.394,483.65 664.061,477.984 660.5,472.5C 658.417,468.082 655.084,465.082 650.5,463.5C 643.942,461.826 637.609,462.492 631.5,465.5C 631.158,466.338 630.492,466.672 629.5,466.5C 627.973,466.427 626.973,467.094 626.5,468.5C 619.5,473.334 613.666,479.334 609,486.5C 596.557,507.593 588.39,530.26 584.5,554.5C 583.172,559.119 582.506,564.119 582.5,569.5C 582.501,574.678 582.834,579.678 583.5,584.5C 583.783,593.876 585.449,602.876 588.5,611.5C 588.345,614.716 589.345,617.383 591.5,619.5C 597.152,632.651 606.152,642.817 618.5,650C 630.138,653.225 641.805,653.225 653.5,650C 672.758,643.281 688.591,631.781 701,615.5C 705.362,608.086 710.196,601.086 715.5,594.5C 716.906,594.027 717.573,593.027 717.5,591.5C 733.451,565.598 747.285,538.598 759,510.5C 761.557,505.489 765.057,504.489 769.5,507.5C 769.24,513.172 768.907,518.839 768.5,524.5C 767.243,532.389 765.243,540.056 762.5,547.5C 760.755,549.033 759.755,551.033 759.5,553.5C 754.944,562.282 750.61,571.282 746.5,580.5C 745.094,580.973 744.427,581.973 744.5,583.5C 738.889,593.319 733.389,603.319 728,613.5C 721.669,622.658 715.169,631.658 708.5,640.5C 706.413,641.585 705.08,643.251 704.5,645.5C 693.595,658.398 680.595,668.731 665.5,676.5C 663.973,676.427 662.973,677.094 662.5,678.5C 660.5,679.167 658.5,679.833 656.5,680.5C 653.843,680.935 651.509,681.935 649.5,683.5C 629.308,689.281 608.975,689.948 588.5,685.5C 585.947,683.416 582.947,682.083 579.5,681.5C 572.338,678.173 565.838,673.84 560,668.5C 553.181,659.683 547.181,650.35 542,640.5C 540.726,636.846 539.56,633.18 538.5,629.5C 537.311,625.431 536.311,621.431 535.5,617.5C 535.813,614.753 535.48,612.086 534.5,609.5C 533.478,609.855 532.811,610.522 532.5,611.5C 516.585,633.755 496.918,651.755 473.5,665.5C 471.973,665.427 470.973,666.094 470.5,667.5C 467.968,668.596 465.635,669.929 463.5,671.5C 459.873,672.321 456.54,673.654 453.5,675.5C 437.504,683.418 420.504,688.085 402.5,689.5C 386.207,691.618 369.873,691.952 353.5,690.5C 347.186,689.613 341.186,687.946 335.5,685.5C 333.898,683.926 331.898,683.259 329.5,683.5C 329.027,682.094 328.027,681.427 326.5,681.5C 311.309,675.161 298.142,665.827 287,653.5C 277.271,640.698 269.104,627.031 262.5,612.5C 262.573,610.973 261.906,609.973 260.5,609.5C 258.344,602.541 256.344,595.541 254.5,588.5C 254.237,583.876 253.237,579.542 251.5,575.5C 250.891,560.174 250.558,544.841 250.5,529.5C 250.5,529.167 250.5,528.833 250.5,528.5C 252.114,520.39 252.78,512.056 252.5,503.5C 252.187,499.958 252.521,496.625 253.5,493.5C 254.657,490.727 255.324,487.727 255.5,484.5C 257.674,465.802 262.341,447.802 269.5,430.5C 271.245,428.967 272.245,426.967 272.5,424.5C 274.932,417.185 277.932,410.185 281.5,403.5C 282.906,403.027 283.573,402.027 283.5,400.5C 291.525,384.438 301.525,369.771 313.5,356.5C 314.583,356.461 315.583,356.127 316.5,355.5C 317.466,357.396 317.799,359.396 317.5,361.5C 319.199,361.66 320.866,361.494 322.5,361C 327.844,354.325 333.177,347.658 338.5,341C 342.766,340.825 346.766,339.825 350.5,338C 354.257,334.914 357.257,331.248 359.5,327C 362.956,326.82 366.289,326.153 369.5,325C 373.911,322.259 377.244,318.592 379.5,314C 383.167,313.667 386.833,313.333 390.5,313C 394.526,311.641 397.193,308.974 398.5,305C 404.167,304.667 409.833,304.333 415.5,304C 417.863,303.411 418.863,301.911 418.5,299.5C 421.532,299.505 424.532,299.838 427.5,300.5C 431.283,300.131 434.616,298.798 437.5,296.5C 443.218,299.821 449.052,300.155 455,297.5C 458.297,299.227 461.797,300.56 465.5,301.5C 467.145,301.059 468.811,300.726 470.5,300.5C 473.389,303.847 477.056,306.347 481.5,308C 484.856,308.215 488.189,308.215 491.5,308C 494.153,309.655 496.486,311.655 498.5,314C 500.423,314.808 502.423,315.308 504.5,315.5C 509.481,314.102 513.814,315.269 517.5,319C 520.657,319.396 523.657,320.229 526.5,321.5 Z"/></g>
<g><path style="opacity:1" fill="#868d8e" d="M 519.5,272.5 C 520.641,275.505 520.641,278.671 519.5,282C 519.387,283.699 520.053,284.866 521.5,285.5C 524.213,287.214 526.213,289.547 527.5,292.5C 527.662,294.527 527.495,296.527 527,298.5C 524.379,300.772 523.879,303.438 525.5,306.5C 524.391,306.443 523.391,306.11 522.5,305.5C 521.85,303.565 521.517,301.565 521.5,299.5C 522.5,299.5 523.5,299.5 524.5,299.5C 525.167,297.181 525.334,294.847 525,292.5C 521.279,289.793 518.779,286.293 517.5,282C 518.869,278.988 519.536,275.821 519.5,272.5 Z"/></g>
<g><path style="opacity:1" fill="#9ba1a3" d="M 331.5,294.5 C 332.213,299.58 333.213,304.58 334.5,309.5C 333.101,311.62 331.435,313.62 329.5,315.5C 329.5,314.833 329.5,314.167 329.5,313.5C 331.026,312.508 331.693,311.008 331.5,309C 330.937,305.812 330.271,302.645 329.5,299.5C 329.436,297.443 330.102,295.777 331.5,294.5 Z"/></g>
<g><path style="opacity:1" fill="#637066" d="M 451.5,311.5 C 442.134,311.279 432.801,311.613 423.5,312.5C 423.611,311.883 423.944,311.383 424.5,311C 433.676,310.176 442.676,310.343 451.5,311.5 Z"/></g>
<g><path style="opacity:1" fill="#979f99" d="M 451.5,311.5 C 454.187,311.336 456.854,311.503 459.5,312C 460.416,312.278 461.082,312.778 461.5,313.5C 457.96,313.247 454.627,312.581 451.5,311.5 Z"/></g>
<g><path style="opacity:1" fill="#67706e" d="M 527.5,292.5 C 528.796,296.153 528.463,299.819 526.5,303.5C 527.322,305.687 528.822,307.353 531,308.5C 531.498,311.817 531.665,315.15 531.5,318.5C 528.5,318.167 527.167,319.5 527.5,322.5C 526.833,322.5 526.5,322.167 526.5,321.5C 526.512,318.312 527.512,315.478 529.5,313C 528.795,310.458 527.461,308.292 525.5,306.5C 523.879,303.438 524.379,300.772 527,298.5C 527.495,296.527 527.662,294.527 527.5,292.5 Z"/></g>
<g><path style="opacity:1" fill="#a8afaa" d="M 473.5,318.5 C 476.833,319.833 479.167,322.167 480.5,325.5C 477.833,323.5 475.5,321.167 473.5,318.5 Z"/></g>
<g><path style="opacity:1" fill="#9ba1a3" d="M 326.5,322.5 C 326.239,326.492 326.906,330.326 328.5,334C 328.472,335.07 328.139,335.903 327.5,336.5C 326.042,333.688 325.042,330.688 324.5,327.5C 324.667,326.167 324.833,324.833 325,323.5C 325.383,322.944 325.883,322.611 326.5,322.5 Z"/></g>
<g><path style="opacity:1" fill="#65706c" d="M 329.5,315.5 C 329.075,318.119 328.075,320.453 326.5,322.5C 325.883,322.611 325.383,322.944 325,323.5C 324.833,324.833 324.667,326.167 324.5,327.5C 325.042,330.688 326.042,333.688 327.5,336.5C 326.728,337.694 325.728,338.694 324.5,339.5C 322.096,332.37 322.596,325.37 326,318.5C 327.039,317.29 328.206,316.29 329.5,315.5 Z"/></g>
<g><path style="opacity:1" fill="#8d968f" d="M 488.5,340.5 C 490.074,342.102 490.741,344.102 490.5,346.5C 488.926,344.898 488.259,342.898 488.5,340.5 Z"/></g>
<g><path style="opacity:1" fill="#637066" d="M 533.5,340.5 C 534.166,344.653 534.499,348.987 534.5,353.5C 534.492,358.222 533.825,362.555 532.5,366.5C 533.146,357.848 533.479,349.182 533.5,340.5 Z"/></g>
<g><path style="opacity:1" fill="#a7aea8" d="M 489.5,370.5 C 489.834,373.491 488.834,375.824 486.5,377.5C 486.935,374.843 487.935,372.509 489.5,370.5 Z"/></g>
<g><path style="opacity:1" fill="#526055" d="M 532.5,368.5 C 532.664,371.187 532.497,373.854 532,376.5C 531.722,377.416 531.222,378.082 530.5,378.5C 530.753,374.96 531.419,371.627 532.5,368.5 Z"/></g>
<g><path style="opacity:1" fill="#f0f0f0" d="M 781.5,377.5 C 785.211,381.685 786.544,386.685 785.5,392.5C 783.067,392.273 781.401,393.273 780.5,395.5C 779.504,395.414 778.671,395.748 778,396.5C 777.503,399.146 777.336,401.813 777.5,404.5C 780.443,404.02 783.11,403.02 785.5,401.5C 788.015,399.158 790.515,399.158 793,401.5C 793.34,405.558 794.007,409.558 795,413.5C 796.87,411.781 799.037,410.781 801.5,410.5C 801.232,408.901 801.566,407.568 802.5,406.5C 803.461,404.735 803.795,402.735 803.5,400.5C 804.833,400.5 806.167,400.5 807.5,400.5C 807.5,402.167 807.5,403.833 807.5,405.5C 808.791,405.737 809.791,405.404 810.5,404.5C 811.461,402.735 811.795,400.735 811.5,398.5C 812.833,398.5 814.167,398.5 815.5,398.5C 815.5,399.5 815.5,400.5 815.5,401.5C 816.833,401.5 818.167,401.5 819.5,401.5C 819.714,403.144 819.38,404.644 818.5,406C 821.285,406.726 821.952,408.226 820.5,410.5C 819.735,410.923 818.902,411.257 818,411.5C 816.14,409.799 813.973,408.799 811.5,408.5C 811.624,410.952 812.624,412.952 814.5,414.5C 814.281,416.915 812.948,417.915 810.5,417.5C 806.423,413.607 802.423,413.607 798.5,417.5C 797.282,419.332 797.949,420.332 800.5,420.5C 801.585,422.587 803.251,423.92 805.5,424.5C 806.473,426.068 806.64,427.735 806,429.5C 803.961,431.874 801.628,433.874 799,435.5C 799.127,438.141 800.627,439.808 803.5,440.5C 806.562,437.66 809.896,436.993 813.5,438.5C 815.102,440.074 817.102,440.741 819.5,440.5C 821.964,445.327 822.631,450.327 821.5,455.5C 817.703,455.872 814.37,457.206 811.5,459.5C 808.307,458.335 805.307,456.669 802.5,454.5C 801.833,451.167 801.167,447.833 800.5,444.5C 794.575,441.525 792.242,443.525 793.5,450.5C 792.566,451.568 792.232,452.901 792.5,454.5C 790.833,454.5 789.167,454.5 787.5,454.5C 785.421,454.029 783.421,453.363 781.5,452.5C 780.432,451.566 779.099,451.232 777.5,451.5C 776.945,455.012 777.612,458.012 779.5,460.5C 781.642,461.745 783.642,463.245 785.5,465C 784.852,466.44 784.519,467.94 784.5,469.5C 782.516,469.617 780.85,468.95 779.5,467.5C 778.614,468.325 778.281,469.325 778.5,470.5C 782.332,470.19 783.832,471.857 783,475.5C 780.528,476.2 778.195,477.2 776,478.5C 774.699,478.361 773.866,477.695 773.5,476.5C 772.081,475.549 770.415,475.216 768.5,475.5C 767.766,474.292 767.433,472.959 767.5,471.5C 769.5,471.167 771.5,470.833 773.5,470.5C 773.5,469.167 773.5,467.833 773.5,466.5C 771.519,467.348 769.519,467.848 767.5,468C 765.963,466.89 765.297,465.39 765.5,463.5C 767.98,462.758 770.313,461.758 772.5,460.5C 773.477,457.713 773.81,454.713 773.5,451.5C 771.901,451.232 770.568,451.566 769.5,452.5C 766.355,454.191 763.021,454.691 759.5,454C 758.189,450.646 757.356,447.146 757,443.5C 754.956,442.228 753.122,442.561 751.5,444.5C 750.833,447.5 750.167,450.5 749.5,453.5C 746.736,454.761 744.403,456.595 742.5,459C 738.517,458.338 734.517,457.338 730.5,456C 729.106,455.044 728.439,453.711 728.5,452C 729.255,448.482 730.088,444.982 731,441.5C 733.598,440.253 736.098,438.92 738.5,437.5C 741.668,438.303 744.668,439.636 747.5,441.5C 749.261,440.965 750.594,439.965 751.5,438.5C 752.289,438.217 752.956,437.717 753.5,437C 750.37,434.872 747.537,432.372 745,429.5C 744.123,427.326 744.623,425.659 746.5,424.5C 749.503,422.993 752.17,420.993 754.5,418.5C 753.717,416.712 752.384,415.712 750.5,415.5C 746.287,413.909 742.454,414.576 739,417.5C 737.989,416.944 737.156,416.278 736.5,415.5C 737.801,413.328 738.801,410.995 739.5,408.5C 737.027,408.799 734.86,409.799 733,411.5C 730.98,410.968 730.147,409.635 730.5,407.5C 731.091,406.849 731.757,406.182 732.5,405.5C 731.691,403.929 731.357,402.262 731.5,400.5C 732.5,400.5 733.5,400.5 734.5,400.5C 734.263,399.209 734.596,398.209 735.5,397.5C 737.167,397.5 738.833,397.5 740.5,397.5C 740.5,400.167 740.5,402.833 740.5,405.5C 741.5,405.5 742.5,405.5 743.5,405.5C 743.5,403.5 743.5,401.5 743.5,399.5C 745.167,399.5 746.833,399.5 748.5,399.5C 748.028,404.366 749.361,408.533 752.5,412C 754.112,412.72 755.612,412.554 757,411.5C 757.495,409.527 757.662,407.527 757.5,405.5C 758.249,404.469 758.915,403.302 759.5,402C 761.473,401.505 763.473,401.338 765.5,401.5C 767.117,402.038 768.784,402.371 770.5,402.5C 770.821,404.048 771.821,404.715 773.5,404.5C 773.806,401.615 773.473,398.948 772.5,396.5C 765.834,393.725 763.667,388.725 766,381.5C 768.5,379 771,376.5 773.5,374C 774.833,373.333 776.167,373.333 777.5,374C 778.705,375.376 780.038,376.542 781.5,377.5 Z"/></g>
<g><path style="opacity:1" fill="#47574b" d="M 781.5,377.5 C 784.596,378.094 786.596,379.927 787.5,383C 786.877,386.481 786.377,389.981 786,393.5C 784.275,394.464 782.441,395.131 780.5,395.5C 781.401,393.273 783.067,392.273 785.5,392.5C 786.544,386.685 785.211,381.685 781.5,377.5 Z"/></g>
<g><path style="opacity:1" fill="#848e86" d="M 337.5,393.5 C 337.573,395.027 336.906,396.027 335.5,396.5C 335.427,394.973 336.094,393.973 337.5,393.5 Z"/></g>
<g><path style="opacity:1" fill="#323e35" d="M 743.5,399.5 C 743.5,401.5 743.5,403.5 743.5,405.5C 742.5,405.5 741.5,405.5 740.5,405.5C 740.5,402.833 740.5,400.167 740.5,397.5C 738.833,397.5 737.167,397.5 735.5,397.5C 735.97,396.307 736.97,395.64 738.5,395.5C 741.41,395.42 743.077,396.753 743.5,399.5 Z"/></g>
<g><path style="opacity:1" fill="#616e64" d="M 780.5,395.5 C 778.272,401.319 779.939,403.319 785.5,401.5C 783.11,403.02 780.443,404.02 777.5,404.5C 777.336,401.813 777.503,399.146 778,396.5C 778.671,395.748 779.504,395.414 780.5,395.5 Z"/></g>
<g><path style="opacity:1" fill="#717d75" d="M 772.5,396.5 C 773.473,398.948 773.806,401.615 773.5,404.5C 771.821,404.715 770.821,404.048 770.5,402.5C 772.308,401.082 772.975,399.082 772.5,396.5 Z"/></g>
<g><path style="opacity:1" fill="#8f9891" d="M 765.5,401.5 C 763.473,401.338 761.473,401.505 759.5,402C 758.915,403.302 758.249,404.469 757.5,405.5C 757.902,399.408 760.568,398.075 765.5,401.5 Z"/></g>
<g><path style="opacity:1" fill="#a2a9a4" d="M 807.5,400.5 C 806.167,400.5 804.833,400.5 803.5,400.5C 803.795,402.735 803.461,404.735 802.5,406.5C 802.5,404.167 802.5,401.833 802.5,399.5C 804.415,399.216 806.081,399.549 807.5,400.5 Z"/></g>
<g><path style="opacity:1" fill="#9b9f9c" d="M 819.5,401.5 C 818.167,401.5 816.833,401.5 815.5,401.5C 815.5,400.5 815.5,399.5 815.5,398.5C 814.167,398.5 812.833,398.5 811.5,398.5C 811.795,400.735 811.461,402.735 810.5,404.5C 810.5,402.167 810.5,399.833 810.5,397.5C 812.5,397.5 814.5,397.5 816.5,397.5C 816.5,398.5 816.5,399.5 816.5,400.5C 817.791,400.263 818.791,400.596 819.5,401.5 Z"/></g>
<g><path style="opacity:1" fill="#7c877f" d="M 283.5,400.5 C 283.573,402.027 282.906,403.027 281.5,403.5C 281.427,401.973 282.094,400.973 283.5,400.5 Z"/></g>
<g><path style="opacity:1" fill="#b6b6b6" d="M 771.5,409.5 C 773.048,409.821 773.715,410.821 773.5,412.5C 770.833,412.5 768.167,412.5 765.5,412.5C 765.768,414.099 765.434,415.432 764.5,416.5C 763.636,410.862 765.803,409.196 771,411.5C 772.684,411.317 772.85,410.65 771.5,409.5 Z"/></g>
<g><path style="opacity:1" fill="#868686" d="M 780.5,409.5 C 779.537,410.363 779.537,411.03 780.5,411.5C 782.316,410.265 783.983,410.265 785.5,411.5C 783.063,411.756 780.729,412.423 778.5,413.5C 777.059,411.167 777.725,409.834 780.5,409.5 Z"/></g>
<g><path style="opacity:1" fill="#4c554e" d="M 820.5,410.5 C 819.665,411.943 818.332,412.943 816.5,413.5C 816.144,417.907 814.144,419.24 810.5,417.5C 812.948,417.915 814.281,416.915 814.5,414.5C 812.624,412.952 811.624,410.952 811.5,408.5C 813.973,408.799 816.14,409.799 818,411.5C 818.902,411.257 819.735,410.923 820.5,410.5 Z"/></g>
<g><path style="opacity:1" fill="#4a524c" d="M 730.5,407.5 C 730.147,409.635 730.98,410.968 733,411.5C 734.86,409.799 737.027,408.799 739.5,408.5C 738.801,410.995 737.801,413.328 736.5,415.5C 734.778,413.55 732.612,412.217 730,411.5C 729.235,409.934 729.402,408.601 730.5,407.5 Z"/></g>
<g><path style="opacity:1" fill="#3a3a3a" d="M 788.5,411.5 C 788.66,413.199 788.494,414.866 788,416.5C 787.617,415.944 787.117,415.611 786.5,415.5C 786.768,413.901 786.434,412.568 785.5,411.5C 783.983,410.265 782.316,410.265 780.5,411.5C 779.537,411.03 779.537,410.363 780.5,409.5C 782.961,408.469 785.627,407.802 788.5,407.5C 788.5,408.833 788.5,410.167 788.5,411.5 Z"/></g>
<g><path style="opacity:1" fill="#929292" d="M 788.5,411.5 C 789.461,413.265 789.795,415.265 789.5,417.5C 787.821,417.715 786.821,417.048 786.5,415.5C 786.821,417.048 787.821,417.715 789.5,417.5C 789.795,415.265 789.461,413.265 788.5,411.5 Z"/></g>
<g><path style="opacity:1" fill="#383838" d="M 771.5,409.5 C 772.85,410.65 772.684,411.317 771,411.5C 765.803,409.196 763.636,410.862 764.5,416.5C 764.44,417.043 764.107,417.376 763.5,417.5C 762.295,414.052 762.628,410.718 764.5,407.5C 766.801,408.325 769.135,408.992 771.5,409.5 Z"/></g>
<g><path style="opacity:1" fill="#aeb3b0" d="M 750.5,415.5 C 752.384,415.712 753.717,416.712 754.5,418.5C 752.17,420.993 749.503,422.993 746.5,424.5C 748.173,422.161 750.173,420.161 752.5,418.5C 751.807,417.482 751.141,416.482 750.5,415.5 Z"/></g>
<g><path style="opacity:1" fill="#818181" d="M 771.5,417.5 C 769.158,418.211 768.825,419.544 770.5,421.5C 768.744,420.448 768.077,418.781 768.5,416.5C 769.791,416.263 770.791,416.596 771.5,417.5 Z"/></g>
<g><path style="opacity:1" fill="#7e8981" d="M 798.5,417.5 C 799.167,418.5 799.833,419.5 800.5,420.5C 797.949,420.332 797.282,419.332 798.5,417.5 Z"/></g>
<g><path style="opacity:1" fill="#303030" d="M 771.5,417.5 C 773.256,418.552 773.923,420.219 773.5,422.5C 772.209,422.737 771.209,422.404 770.5,421.5C 768.825,419.544 769.158,418.211 771.5,417.5 Z"/></g>
<g><path style="opacity:1" fill="#5b695f" d="M 326.5,416.5 C 326.104,419.721 324.771,422.388 322.5,424.5C 322.896,421.279 324.229,418.612 326.5,416.5 Z"/></g>
<g><path style="opacity:1" fill="#a5a5a5" d="M 779.5,417.5 C 780.209,416.596 781.209,416.263 782.5,416.5C 782.662,418.527 782.495,420.527 782,422.5C 780.644,423.38 779.144,423.714 777.5,423.5C 777.025,420.918 777.692,418.918 779.5,417.5 Z"/></g>
<g><path style="opacity:1" fill="#212121" d="M 779.5,417.5 C 781.176,418.183 781.843,419.517 781.5,421.5C 780.5,421.5 779.5,421.5 778.5,421.5C 778.433,420.041 778.766,418.708 779.5,417.5 Z"/></g>
<g><path style="opacity:1" fill="#556458" d="M 800.5,420.5 C 803.063,420.731 804.73,422.065 805.5,424.5C 803.251,423.92 801.585,422.587 800.5,420.5 Z"/></g>
<g><path style="opacity:1" fill="#444444" d="M 758.5,421.5 C 759.675,421.281 760.675,421.614 761.5,422.5C 759.473,423.861 757.806,425.527 756.5,427.5C 757.286,429.571 758.619,431.238 760.5,432.5C 760,432.833 759.5,433.167 759,433.5C 756.369,432.037 754.202,430.037 752.5,427.5C 754.854,425.812 756.854,423.812 758.5,421.5 Z"/></g>
<g><path style="opacity:1" fill="#2d2d2d" d="M 783.5,425.5 C 786.694,425.176 787.694,426.342 786.5,429C 785.207,429.49 783.873,429.657 782.5,429.5C 782.433,428.041 782.766,426.708 783.5,425.5 Z"/></g>
<g><path style="opacity:1" fill="#5b695e" d="M 501.5,425.5 C 499.954,427.931 497.621,429.264 494.5,429.5C 496.535,427.805 498.868,426.472 501.5,425.5 Z"/></g>
<g><path style="opacity:1" fill="#323232" d="M 764.5,425.5 C 767.5,425.167 768.833,426.5 768.5,429.5C 764.56,430.234 763.227,428.901 764.5,425.5 Z"/></g>
<g><path style="opacity:1" fill="#919a94" d="M 272.5,424.5 C 272.245,426.967 271.245,428.967 269.5,430.5C 269.755,428.033 270.755,426.033 272.5,424.5 Z"/></g>
<g><path style="opacity:1" fill="#a1a9a3" d="M 469.5,427.5 C 477.021,429.308 484.688,429.975 492.5,429.5C 486.347,430.653 480.014,430.82 473.5,430C 471.68,429.8 470.347,428.966 469.5,427.5 Z"/></g>
<g><path style="opacity:1" fill="#505050" d="M 789.5,421.5 C 792.979,422.622 795.979,424.622 798.5,427.5C 796.798,430.037 794.631,432.037 792,433.5C 791.5,433.167 791,432.833 790.5,432.5C 791.88,430.826 793.213,429.16 794.5,427.5C 792.787,425.461 791.121,423.461 789.5,421.5 Z"/></g>
<g><path style="opacity:1" fill="#313131" d="M 770.5,432.5 C 771.5,432.5 772.5,432.5 773.5,432.5C 774.244,435.95 772.91,437.616 769.5,437.5C 769.366,435.708 769.699,434.042 770.5,432.5 Z"/></g>
<g><path style="opacity:1" fill="#424242" d="M 777.5,432.5 C 781.446,432.488 783.113,434.488 782.5,438.5C 778.686,438.349 777.019,436.349 777.5,432.5 Z"/></g>
<g><path style="opacity:1" fill="#667369" d="M 738.5,437.5 C 739.946,436.387 741.613,436.22 743.5,437C 745.833,439.504 748.499,440.004 751.5,438.5C 750.594,439.965 749.261,440.965 747.5,441.5C 744.668,439.636 741.668,438.303 738.5,437.5 Z"/></g>
<g><path style="opacity:1" fill="#919191" d="M 788.5,443.5 C 788.66,441.801 788.494,440.134 788,438.5C 787.617,439.056 787.117,439.389 786.5,439.5C 786.821,437.952 787.821,437.285 789.5,437.5C 789.795,439.735 789.461,441.735 788.5,443.5 Z"/></g>
<g><path style="opacity:1" fill="#6d7970" d="M 813.5,438.5 C 815.898,438.259 817.898,438.926 819.5,440.5C 817.102,440.741 815.102,440.074 813.5,438.5 Z"/></g>
<g><path style="opacity:1" fill="#454545" d="M 762.5,437.5 C 763.496,437.414 764.329,437.748 765,438.5C 765.495,440.473 765.662,442.473 765.5,444.5C 767.954,444.679 770.121,444.013 772,442.5C 772.5,442.833 773,443.167 773.5,443.5C 770.563,445.813 767.23,447.146 763.5,447.5C 762.949,444.193 762.616,440.86 762.5,437.5 Z"/></g>
<g><path style="opacity:1" fill="#69766d" d="M 317.5,438.5 C 317.31,441.855 316.31,444.855 314.5,447.5C 314.528,444.084 315.528,441.084 317.5,438.5 Z"/></g>
<g><path style="opacity:1" fill="#262626" d="M 788.5,443.5 C 787.566,444.568 787.232,445.901 787.5,447.5C 786.5,447.5 785.5,447.5 784.5,447.5C 784.5,446.833 784.167,446.5 783.5,446.5C 784.167,445.833 784.833,445.167 785.5,444.5C 786.301,442.958 786.634,441.292 786.5,439.5C 787.117,439.389 787.617,439.056 788,438.5C 788.494,440.134 788.66,441.801 788.5,443.5 Z"/></g>
<g><path style="opacity:1" fill="#626262" d="M 785.5,444.5 C 784.833,445.167 784.167,445.833 783.5,446.5C 780.722,446.978 778.722,445.978 777.5,443.5C 778,443.167 778.5,442.833 779,442.5C 780.879,444.013 783.046,444.679 785.5,444.5 Z"/></g>
<g><path style="opacity:1" fill="#a4aba6" d="M 623.5,444.5 C 619.498,446.61 615.165,447.943 610.5,448.5C 614.502,446.39 618.835,445.057 623.5,444.5 Z"/></g>
<g><path style="opacity:1" fill="#9d9d9d" d="M 788.5,443.5 C 788.5,445.167 788.5,446.833 788.5,448.5C 786.901,448.768 785.568,448.434 784.5,447.5C 785.5,447.5 786.5,447.5 787.5,447.5C 787.232,445.901 787.566,444.568 788.5,443.5 Z"/></g>
<g><path style="opacity:1" fill="#717d74" d="M 769.5,452.5 C 770.568,451.566 771.901,451.232 773.5,451.5C 773.81,454.713 773.477,457.713 772.5,460.5C 772.5,457.833 772.5,455.167 772.5,452.5C 771.5,452.5 770.5,452.5 769.5,452.5 Z"/></g>
<g><path style="opacity:1" fill="#79847c" d="M 781.5,452.5 C 780.5,452.5 779.5,452.5 778.5,452.5C 778.279,455.279 778.612,457.946 779.5,460.5C 777.612,458.012 776.945,455.012 777.5,451.5C 779.099,451.232 780.432,451.566 781.5,452.5 Z"/></g>
<g><path style="opacity:1" fill="#57655b" d="M 793.5,450.5 C 793.5,452.167 793.5,453.833 793.5,455.5C 791.265,455.795 789.265,455.461 787.5,454.5C 789.167,454.5 790.833,454.5 792.5,454.5C 792.232,452.901 792.566,451.568 793.5,450.5 Z"/></g>
<g><path style="opacity:1" fill="#4e5e52" d="M 821.5,455.5 C 818.691,457.897 815.358,459.23 811.5,459.5C 814.37,457.206 817.703,455.872 821.5,455.5 Z"/></g>
<g><path style="opacity:1" fill="#a1a9a3" d="M 696.5,460.5 C 698.942,462.121 700.275,464.454 700.5,467.5C 698.801,465.434 697.468,463.1 696.5,460.5 Z"/></g>
<g><path style="opacity:1" fill="#59675d" d="M 650.5,463.5 C 644.044,463.232 637.711,463.899 631.5,465.5C 637.609,462.492 643.942,461.826 650.5,463.5 Z"/></g>
<g><path style="opacity:1" fill="#758178" d="M 629.5,466.5 C 629.027,467.906 628.027,468.573 626.5,468.5C 626.973,467.094 627.973,466.427 629.5,466.5 Z"/></g>
<g><path style="opacity:1" fill="#3a493d" d="M 765.5,463.5 C 765.297,465.39 765.963,466.89 767.5,468C 769.519,467.848 771.519,467.348 773.5,466.5C 773.5,467.833 773.5,469.167 773.5,470.5C 771.5,470.833 769.5,471.167 767.5,471.5C 766.313,469.802 765.313,467.968 764.5,466C 764.528,464.93 764.861,464.097 765.5,463.5 Z"/></g>
<g><path style="opacity:1" fill="#909892" d="M 768.5,475.5 C 770.415,475.216 772.081,475.549 773.5,476.5C 772.305,476.678 771.138,477.011 770,477.5C 768.97,477.164 768.47,476.497 768.5,475.5 Z"/></g>
<g><path style="opacity:1" fill="#7b867e" d="M 309.5,466.5 C 308.777,471.84 307.943,477.173 307,482.5C 306.617,483.056 306.117,483.389 305.5,483.5C 306.395,478.188 307.229,472.855 308,467.5C 308.383,466.944 308.883,466.611 309.5,466.5 Z"/></g>
<g><path style="opacity:1" fill="#737f76" d="M 660.5,472.5 C 664.061,477.984 664.394,483.65 661.5,489.5C 661.625,483.797 661.292,478.13 660.5,472.5 Z"/></g>
<g><path style="opacity:1" fill="#6d7a70" d="M 255.5,484.5 C 255.324,487.727 254.657,490.727 253.5,493.5C 253.336,490.813 253.503,488.146 254,485.5C 254.383,484.944 254.883,484.611 255.5,484.5 Z"/></g>
<g><path style="opacity:1" fill="#a3aba5" d="M 564.5,486.5 C 563.92,488.749 562.587,490.415 560.5,491.5C 561.08,489.251 562.413,487.585 564.5,486.5 Z"/></g>
<g><path style="opacity:1" fill="#a0a8a2" d="M 661.5,490.5 C 661.412,495.536 660.912,500.536 660,505.5C 659.722,506.416 659.222,507.082 658.5,507.5C 659.196,501.651 660.196,495.984 661.5,490.5 Z"/></g>
<g><path style="opacity:1" fill="#7f8a82" d="M 699.5,501.5 C 699.323,505.708 697.99,509.374 695.5,512.5C 696.462,508.605 697.796,504.939 699.5,501.5 Z"/></g>
<g><path style="opacity:1" fill="#99a19b" d="M 553.5,503.5 C 553.245,505.967 552.245,507.967 550.5,509.5C 550.755,507.033 551.755,505.033 553.5,503.5 Z"/></g>
<g><path style="opacity:1" fill="#c5cac6" d="M 252.5,503.5 C 252.78,512.056 252.114,520.39 250.5,528.5C 250.22,519.944 250.886,511.61 252.5,503.5 Z"/></g>
<g><path style="opacity:1" fill="#5c695f" d="M 693.5,516.5 C 692.92,518.749 691.587,520.415 689.5,521.5C 690.08,519.251 691.413,517.585 693.5,516.5 Z"/></g>
<g><path style="opacity:1" fill="#6f7b72" d="M 769.5,507.5 C 770.798,513.233 770.465,518.9 768.5,524.5C 768.907,518.839 769.24,513.172 769.5,507.5 Z"/></g>
<g><path style="opacity:1" fill="#929b94" d="M 545.5,522.5 C 544.744,526.767 543.411,530.767 541.5,534.5C 541.861,530.085 543.194,526.085 545.5,522.5 Z"/></g>
<g><path style="opacity:1" fill="#58665c" d="M 682.5,526.5 C 680.91,528.821 678.577,529.821 675.5,529.5C 677.649,528.264 679.982,527.264 682.5,526.5 Z"/></g>
<g><path style="opacity:1" fill="#9fa7a2" d="M 661.5,528.5 C 666.13,529.229 670.797,529.563 675.5,529.5C 673.696,530.162 671.696,530.495 669.5,530.5C 666.473,530.713 663.807,530.047 661.5,528.5 Z"/></g>
<g><path style="opacity:1" fill="#bbc0bc" d="M 250.5,529.5 C 250.558,544.841 250.891,560.174 251.5,575.5C 250.042,566.209 249.376,556.709 249.5,547C 249.501,540.99 249.834,535.157 250.5,529.5 Z"/></g>
<g><path style="opacity:1" fill="#68746b" d="M 762.5,547.5 C 762.245,549.967 761.245,551.967 759.5,553.5C 759.755,551.033 760.755,549.033 762.5,547.5 Z"/></g>
<g><path style="opacity:1" fill="#77837a" d="M 304.5,550.5 C 306.163,552.438 306.829,554.772 306.5,557.5C 305.076,555.485 304.41,553.152 304.5,550.5 Z"/></g>
<g><path style="opacity:1" fill="#6a766d" d="M 538.5,549.5 C 538.044,555.061 537.044,560.394 535.5,565.5C 535.671,560.804 536.171,556.137 537,551.5C 537.278,550.584 537.778,549.918 538.5,549.5 Z"/></g>
<g><path style="opacity:1" fill="#848e87" d="M 306.5,558.5 C 307.768,560.905 308.435,563.572 308.5,566.5C 306.96,564.162 306.294,561.495 306.5,558.5 Z"/></g>
<g><path style="opacity:1" fill="#a7aea9" d="M 584.5,554.5 C 583.604,564.468 583.271,574.468 583.5,584.5C 582.834,579.678 582.501,574.678 582.5,569.5C 582.506,564.119 583.172,559.119 584.5,554.5 Z"/></g>
<g><path style="opacity:1" fill="#8b948d" d="M 746.5,580.5 C 746.573,582.027 745.906,583.027 744.5,583.5C 744.427,581.973 745.094,580.973 746.5,580.5 Z"/></g>
<g><path style="opacity:1" fill="#919a93" d="M 251.5,575.5 C 253.237,579.542 254.237,583.876 254.5,588.5C 252.551,584.521 251.551,580.187 251.5,575.5 Z"/></g>
<g><path style="opacity:1" fill="#8b958d" d="M 717.5,591.5 C 717.573,593.027 716.906,594.027 715.5,594.5C 715.427,592.973 716.094,591.973 717.5,591.5 Z"/></g>
<g><path style="opacity:1" fill="#758178" d="M 260.5,609.5 C 261.906,609.973 262.573,610.973 262.5,612.5C 261.094,612.027 260.427,611.027 260.5,609.5 Z"/></g>
<g><path style="opacity:1" fill="#a5aaa6" d="M 535.5,617.5 C 535.06,615.156 534.06,613.156 532.5,611.5C 532.811,610.522 533.478,609.855 534.5,609.5C 535.48,612.086 535.813,614.753 535.5,617.5 Z"/></g>
<g><path style="opacity:1" fill="#b2b8b4" d="M 502.5,608.5 C 500.5,612.5 497.5,615.5 493.5,617.5C 496.167,614.167 499.167,611.167 502.5,608.5 Z"/></g>
<g><path style="opacity:1" fill="#858f88" d="M 588.5,611.5 C 589.871,613.936 590.871,616.603 591.5,619.5C 589.345,617.383 588.345,614.716 588.5,611.5 Z"/></g>
<g><path style="opacity:1" fill="#5a685d" d="M 535.5,617.5 C 536.311,621.431 537.311,625.431 538.5,629.5C 537.034,628.653 536.2,627.32 536,625.5C 535.503,622.854 535.336,620.187 535.5,617.5 Z"/></g>
<g><path style="opacity:1" fill="#5b695e" d="M 708.5,640.5 C 707.92,642.749 706.587,644.415 704.5,645.5C 705.08,643.251 706.413,641.585 708.5,640.5 Z"/></g>
<g><path style="opacity:1" fill="#8b958e" d="M 367.5,644.5 C 371.624,645.399 375.291,647.066 378.5,649.5C 374.299,648.777 370.632,647.11 367.5,644.5 Z"/></g>
<g><path style="opacity:1" fill="#9ea6a0" d="M 452.5,645.5 C 449.947,647.584 446.947,648.917 443.5,649.5C 446.053,647.416 449.053,646.083 452.5,645.5 Z"/></g>
<g><path style="opacity:1" fill="#455549" d="M 379.5,649.5 C 384.312,648.965 388.645,649.965 392.5,652.5C 388.015,651.66 383.681,650.66 379.5,649.5 Z"/></g>
<g><path style="opacity:1" fill="#707c74" d="M 473.5,665.5 C 473.027,666.906 472.027,667.573 470.5,667.5C 470.973,666.094 471.973,665.427 473.5,665.5 Z"/></g>
<g><path style="opacity:1" fill="#3d4e41" d="M 463.5,671.5 C 461.109,674.917 457.775,676.25 453.5,675.5C 456.54,673.654 459.873,672.321 463.5,671.5 Z"/></g>
<g><path style="opacity:1" fill="#7b867e" d="M 665.5,676.5 C 665.027,677.906 664.027,678.573 662.5,678.5C 662.973,677.094 663.973,676.427 665.5,676.5 Z"/></g>
<g><path style="opacity:1" fill="#8c968e" d="M 326.5,681.5 C 328.027,681.427 329.027,682.094 329.5,683.5C 327.973,683.573 326.973,682.906 326.5,681.5 Z"/></g>
<g><path style="opacity:1" fill="#747f77" d="M 579.5,681.5 C 582.947,682.083 585.947,683.416 588.5,685.5C 585.053,684.917 582.053,683.584 579.5,681.5 Z"/></g>
<g><path style="opacity:1" fill="#546358" d="M 656.5,680.5 C 654.824,682.834 652.491,683.834 649.5,683.5C 651.509,681.935 653.843,680.935 656.5,680.5 Z"/></g>
<g><path style="opacity:1" fill="#949d97" d="M 329.5,683.5 C 331.898,683.259 333.898,683.926 335.5,685.5C 333.102,685.741 331.102,685.074 329.5,683.5 Z"/></g>
<g><path style="opacity:1" fill="#5e6c61" d="M 402.5,689.5 C 401.737,690.268 400.737,690.768 399.5,691C 385.862,692.451 372.195,692.784 358.5,692C 356.618,691.802 354.952,691.302 353.5,690.5C 369.873,691.952 386.207,691.618 402.5,689.5 Z"/></g>
</svg>
